<?xml version="1.0" standalone="no"?>
<!DOCTYPE svg PUBLIC "-//W3C//DTD SVG 20010904//EN"
 "http://www.w3.org/TR/2001/REC-SVG-20010904/DTD/svg10.dtd">
<svg version="1.0" xmlns="http://www.w3.org/2000/svg"
 width="960.000000pt" height="960.000000pt" viewBox="0 0 960.000000 960.000000"
 preserveAspectRatio="xMidYMid meet">
<metadata>
Created by potrace 1.14, written by Peter Selinger 2001-2017
</metadata>
<g transform="translate(0.000000,960.000000) scale(0.100000,-0.100000)"
fill="#000000" stroke="none">
<path d="M2938 9355 c-1 -1 -41 -6 -88 -9 -47 -3 -98 -8 -115 -11 -33 -5 -103
-14 -150 -20 -39 -5 -96 -15 -115 -20 -14 -4 -25 -6 -97 -20 -16 -3 -41 -10
-58 -15 -16 -5 -43 -12 -60 -15 -31 -6 -40 -9 -65 -17 -107 -37 -248 -81 -257
-81 -7 0 -13 -4 -13 -9 0 -4 -5 -8 -11 -8 -14 0 -237 -98 -266 -118 -13 -8
-23 -10 -23 -6 0 5 -4 4 -8 -2 -4 -5 -32 -23 -62 -38 -30 -16 -62 -34 -71 -42
-8 -8 -19 -14 -24 -14 -11 0 -139 -81 -147 -94 -4 -6 -8 -7 -8 -3 0 5 -7 2
-15 -5 -22 -20 -34 -29 -105 -80 -36 -26 -77 -57 -92 -70 -14 -13 -46 -39 -70
-58 -44 -36 -277 -266 -313 -311 -11 -13 -36 -44 -55 -69 -19 -25 -37 -47 -40
-50 -3 -3 -22 -27 -41 -55 -18 -27 -36 -52 -39 -55 -6 -6 -40 -58 -98 -150
-35 -57 -161 -292 -162 -305 -1 -2 -13 -31 -27 -62 -14 -32 -26 -64 -26 -70 0
-7 -3 -13 -7 -13 -4 0 -7 -6 -7 -12 -1 -7 -16 -51 -33 -98 -17 -47 -34 -95
-36 -107 -2 -12 -9 -34 -14 -48 -5 -14 -7 -25 -4 -25 4 0 1 -6 -5 -14 -6 -7
-13 -26 -15 -42 -2 -16 -13 -69 -24 -119 -24 -106 -29 -134 -47 -275 -16 -116
-19 -200 -20 -410 0 -129 4 -271 9 -315 5 -44 10 -98 12 -120 5 -47 22 -158
29 -189 3 -11 9 -41 15 -66 58 -268 134 -481 257 -725 57 -112 94 -179 111
-197 8 -10 11 -18 6 -18 -5 0 -4 -4 1 -8 6 -4 28 -34 50 -67 34 -53 88 -128
135 -189 8 -11 25 -30 37 -43 13 -13 23 -28 23 -32 0 -5 69 -77 153 -161 164
-165 170 -170 237 -221 24 -19 56 -44 70 -57 57 -51 400 -270 400 -255 0 3 8
-1 18 -9 9 -8 36 -23 60 -34 23 -10 42 -21 42 -24 0 -4 6 -7 13 -7 6 0 43 -15
82 -33 135 -62 396 -153 505 -175 8 -2 15 -4 15 -5 0 -1 8 -3 19 -5 10 -2 41
-9 70 -16 28 -7 59 -14 69 -15 9 -1 18 -2 20 -4 4 -3 42 -9 75 -12 17 -1 32
-5 32 -8 0 -3 10 -5 23 -6 25 -1 142 -14 171 -20 91 -17 513 -23 691 -10 136
11 154 12 200 19 22 4 58 9 80 12 22 3 54 8 70 11 17 3 39 7 50 8 61 9 188 39
300 72 28 8 59 16 70 19 43 9 180 60 187 70 4 5 8 7 8 3 0 -4 21 2 46 12 25
11 51 20 57 20 9 0 12 -396 10 -1640 l-1 -1640 548 0 c430 0 549 3 552 12 2 7
3 397 3 866 l-1 853 156 0 c85 0 162 0 170 0 8 1 116 0 240 0 124 -1 401 -1
615 0 l390 2 52 -74 c29 -41 56 -78 60 -84 5 -5 24 -32 43 -60 104 -154 286
-411 295 -417 5 -4 7 -8 3 -8 -7 0 32 -57 71 -106 4 -5 21 -30 37 -55 16 -24
33 -49 39 -56 20 -25 31 -40 70 -98 22 -33 44 -64 48 -70 7 -9 129 -184 157
-225 5 -8 83 -120 172 -247 l162 -233 593 0 593 0 -57 83 c-31 45 -60 84 -63
87 -3 3 -9 12 -15 22 -5 9 -66 96 -134 195 -111 158 -146 207 -181 250 -6 7
-10 15 -10 18 0 8 -52 78 -65 87 -5 4 -7 8 -3 8 4 0 1 8 -7 17 -8 10 -62 86
-119 168 -58 83 -109 155 -113 160 -4 6 -21 30 -38 55 -16 25 -32 47 -35 50
-3 3 -19 25 -35 50 -17 25 -38 54 -47 64 -10 11 -18 26 -18 33 0 7 -4 13 -8
13 -10 0 -62 77 -62 91 0 5 -4 9 -8 9 -4 0 -16 13 -25 30 -10 16 -23 35 -30
42 -7 7 -24 31 -37 53 -13 22 -27 42 -30 45 -3 3 -39 54 -80 113 -41 60 -89
127 -107 149 -17 23 -29 47 -26 55 3 7 8 11 12 9 14 -9 321 150 388 200 17 13
36 24 41 24 6 0 12 3 14 8 2 4 32 29 68 57 128 98 234 204 350 351 32 41 110
162 110 172 0 6 4 12 8 14 13 5 81 145 117 238 18 47 36 94 40 105 4 11 9 25
10 30 1 6 3 13 5 18 1 4 3 10 4 15 1 4 12 48 23 97 20 84 32 145 38 205 2 14
4 25 5 25 6 0 13 174 13 320 -1 151 -8 310 -14 310 -1 0 -2 11 -3 25 -1 14 -6
43 -10 65 -4 22 -10 51 -13 65 -14 81 -71 275 -98 335 -7 17 -23 55 -36 85
-13 30 -45 93 -71 139 -26 46 -48 86 -48 88 0 3 -6 11 -12 18 -28 31 -38 44
-38 51 0 3 -11 20 -25 38 -149 183 -186 221 -342 351 -7 5 -19 16 -27 22 -22
19 -169 118 -186 126 -8 4 -37 21 -65 37 -42 26 -149 80 -165 85 -3 1 -25 11
-50 22 -25 11 -74 31 -110 43 -36 13 -69 27 -75 30 -5 4 -35 13 -65 20 -30 7
-61 17 -67 23 -7 5 -13 7 -13 4 0 -3 -15 -1 -32 5 -52 16 -100 28 -138 34 -19
3 -42 7 -50 9 -8 3 -32 7 -54 11 -21 3 -48 8 -60 10 -67 14 -188 28 -356 41
-52 4 -689 7 -1415 8 l-1320 0 -1 -753 c-2 -721 -3 -754 -20 -768 -11 -8 -46
-33 -79 -55 -32 -22 -62 -43 -65 -47 -10 -14 -320 -176 -320 -167 0 3 -25 -6
-55 -20 -30 -13 -55 -21 -55 -18 0 3 -6 1 -13 -5 -7 -6 -26 -12 -42 -14 -17
-2 -32 -6 -35 -10 -3 -4 -17 -9 -30 -12 -14 -2 -54 -11 -90 -20 -70 -16 -120
-26 -160 -31 -115 -15 -189 -19 -345 -19 -209 0 -302 8 -445 35 -30 6 -64 12
-75 14 -11 2 -40 9 -65 16 -25 6 -54 13 -65 15 -23 4 -130 40 -160 53 -25 11
-57 23 -70 26 -17 4 -208 101 -263 134 -29 17 -57 31 -62 31 -4 0 -10 3 -12 8
-1 4 -45 38 -96 76 -52 37 -116 89 -143 116 -27 26 -49 46 -49 44 0 -6 -108
113 -145 160 -16 21 -38 45 -47 54 -10 9 -18 22 -18 28 0 7 -4 14 -8 16 -11 4
-92 124 -92 137 0 5 -3 11 -8 13 -4 2 -33 53 -63 113 -47 92 -73 157 -137 335
-3 8 -6 20 -7 25 -2 6 -8 30 -15 55 -7 25 -14 54 -16 65 -2 11 -6 31 -8 45
-35 181 -40 239 -39 460 0 192 6 301 18 360 2 14 7 39 10 57 8 52 42 198 45
198 1 0 3 9 5 20 15 96 130 356 223 505 29 47 59 94 65 104 7 11 19 27 27 36
8 10 22 27 30 38 54 72 183 209 260 275 67 57 214 167 225 167 2 0 21 12 42
26 52 35 233 126 233 117 0 -5 4 -3 8 3 12 18 277 109 377 129 17 3 39 8 50
10 11 2 29 6 41 8 12 3 45 8 74 12 29 4 61 8 71 10 78 15 401 22 504 11 116
-13 160 -19 265 -42 159 -33 147 -30 261 -70 92 -32 290 -122 344 -156 10 -7
56 -36 101 -65 102 -65 236 -173 336 -272 43 -42 82 -75 87 -74 5 1 31 24 58
50 28 26 98 93 157 148 59 55 129 120 155 145 26 25 111 105 189 179 78 74
142 137 142 140 -1 13 -152 174 -236 250 -119 108 -366 291 -392 291 -7 0 -12
3 -12 8 0 4 -30 23 -68 42 -37 19 -69 37 -72 40 -11 13 -209 103 -298 137
-120 45 -289 99 -324 103 -4 1 -22 6 -40 11 -18 6 -42 12 -53 14 -11 3 -31 7
-45 10 -14 4 -36 8 -50 11 -14 2 -31 7 -38 9 -11 4 -41 9 -127 20 -16 2 -30 4
-30 5 0 3 -37 8 -106 14 -41 4 -87 9 -104 12 -33 6 -581 14 -587 9z m4207
-4128 c28 -4 77 -9 110 -12 33 -4 71 -8 85 -11 14 -2 41 -7 60 -10 19 -3 78
-17 130 -30 52 -14 100 -27 105 -28 6 -2 23 -8 38 -14 16 -7 30 -12 32 -12 12
0 161 -74 172 -86 8 -8 20 -14 27 -14 7 0 21 -9 31 -20 10 -11 22 -20 26 -20
23 0 229 -204 229 -226 0 -8 4 -14 8 -14 5 0 15 -12 23 -27 7 -16 23 -44 35
-63 18 -30 33 -67 80 -195 4 -11 8 -27 9 -35 1 -8 7 -33 13 -55 32 -114 36
-429 7 -562 -3 -13 -7 -33 -10 -45 -3 -13 -7 -32 -9 -43 -2 -11 -11 -37 -19
-58 -9 -20 -14 -37 -12 -37 11 0 -69 -158 -112 -222 -40 -60 -154 -184 -205
-224 -104 -81 -295 -182 -378 -199 -8 -2 -27 -8 -41 -13 -32 -13 -207 -51
-262 -57 -23 -3 -64 -8 -92 -11 -27 -4 -70 -8 -95 -10 -37 -3 -1237 -7 -1436
-5 l-60 1 0 1178 c0 948 2 1178 12 1182 19 7 1439 4 1499 -3z"/>
</g>
</svg>
